<svg xmlns="http://www.w3.org/2000/svg" width="16.866" height="16.877" viewBox="0 0 16.866 16.877"><path d="M3.336,16.877A3.329,3.329,0,0,1,0,13.556V6.027H4.9a4.258,4.258,0,0,0-.8,2.488,4.316,4.316,0,0,0,8.631,0,4.258,4.258,0,0,0-.8-2.488h4.927v7.529a3.329,3.329,0,0,1-3.336,3.32ZM5.1,8.515a3.325,3.325,0,1,1,3.324,3.31A3.3,3.3,0,0,1,5.1,8.515Zm.878,0A2.457,2.457,0,1,0,8.433,6.069,2.454,2.454,0,0,0,5.976,8.515Zm2.446-4.3A4.3,4.3,0,0,0,5.347,5.5H0V3.32A3.324,3.324,0,0,1,1.41.61V4.186h.683V.239A3.2,3.2,0,0,1,2.575.088v4.1h.684V0h.472V4.186h.683V0H13.53a3.328,3.328,0,0,1,3.336,3.32V5.5H11.5A4.3,4.3,0,0,0,8.422,4.219Zm4.046-2.3V3.755A.535.535,0,0,0,13,4.288h1.8a.535.535,0,0,0,.535-.533V1.921a.534.534,0,0,0-.535-.532H13A.534.534,0,0,0,12.468,1.921Z" fill="#fff"/></svg>