<svg xmlns="http://www.w3.org/2000/svg" width="20" height="18" viewBox="0 0 20 18"><path d="M21.889,13H4.111A1.063,1.063,0,0,0,3,14v6a1.063,1.063,0,0,0,1.111,1H21.889A1.063,1.063,0,0,0,23,20V14A1.063,1.063,0,0,0,21.889,13ZM7.444,19a2.126,2.126,0,0,1-2.222-2,2.126,2.126,0,0,1,2.222-2,2.126,2.126,0,0,1,2.222,2A2.126,2.126,0,0,1,7.444,19ZM21.889,3H4.111A1.063,1.063,0,0,0,3,4v6a1.063,1.063,0,0,0,1.111,1H21.889A1.063,1.063,0,0,0,23,10V4A1.063,1.063,0,0,0,21.889,3ZM7.444,9A2.126,2.126,0,0,1,5.222,7,2.126,2.126,0,0,1,7.444,5,2.126,2.126,0,0,1,9.667,7,2.126,2.126,0,0,1,7.444,9Z" transform="translate(-3 -3)" fill="#8e8e93"/></svg>