<svg xmlns="http://www.w3.org/2000/svg" width="20" height="22" viewBox="0 0 20 22"><path d="M23.345,10.68a.831.831,0,0,1-.773-.644l-1.8-6.392a.785.785,0,0,0-1.545,0l-1.8,6.392a.831.831,0,0,1-.773.644H10.81a.81.81,0,0,0-.769.631,1.015,1.015,0,0,0,.289,1.044l4.743,3.976a1,1,0,0,1,.292,1.031l-1.808,6.421a1.063,1.063,0,0,0,.121.84.767.767,0,0,0,.655.376.737.737,0,0,0,.477-.184l4.709-3.948a.732.732,0,0,1,.961,0l4.709,3.948a.737.737,0,0,0,.477.184.767.767,0,0,0,.655-.376,1.063,1.063,0,0,0,.121-.84l-1.808-6.421a1,1,0,0,1,.292-1.031l4.743-3.976a1.015,1.015,0,0,0,.289-1.044.81.81,0,0,0-.769-.631Z" transform="translate(-10 -3)" fill="#8e8e93" fill-rule="evenodd"/></svg>