<svg xmlns="http://www.w3.org/2000/svg" width="18.126" height="13.919" viewBox="0 0 18.126 13.919"><path d="M.407,12.34c-1.929-.22,3.52,1.579,5.572,1.579A10.087,10.087,0,0,0,16.312,3.466a7.248,7.248,0,0,0,1.814-1.819,7.461,7.461,0,0,1-2.088.553,3.546,3.546,0,0,0,1.6-1.944,7.43,7.43,0,0,1-2.308.853A3.689,3.689,0,0,0,12.674,0,3.549,3.549,0,0,0,9.133,4.315,10.443,10.443,0,0,1,1.64.643,3.447,3.447,0,0,0,2.765,5.334,3.72,3.72,0,0,1,1.118,4.9a3.548,3.548,0,0,0,2.916,3.49,3.764,3.764,0,0,1-1.641.06,3.624,3.624,0,0,0,3.4,2.44A7.49,7.49,0,0,1,.407,12.34Z" fill="#fff"/></svg>