<svg xmlns="http://www.w3.org/2000/svg" width="14.331" height="16.874" viewBox="0 0 14.331 16.874"><path d="M2.006,16.874A2.03,2.03,0,0,1,0,14.827V9.654A2.031,2.031,0,0,1,2.006,7.6H12.323a2.031,2.031,0,0,1,2.007,2.049v5.173a2.03,2.03,0,0,1-2.007,2.047ZM10.559,12V14.05c0,.886.45,1.415,1.2,1.415.829,0,1.249-.476,1.249-1.415v-.344h-.857v.318c0,.4-.018.64-.373.64-.336,0-.364-.3-.364-.64v-.863H13.01V12c0-.868-.421-1.346-1.186-1.346A1.251,1.251,0,0,0,10.559,12ZM4.341,14.591c0,.714.36.821.574.821a1.007,1.007,0,0,0,.492-.15,1.858,1.858,0,0,0,.48-.425v.5H6.72V10.767H5.887V14.24c-.1.133-.329.342-.49.342-.2,0-.222-.156-.222-.308V10.767H4.341Zm4.035.4a.954.954,0,0,0,.791.407c.491,0,.762-.357.762-1.005V11.856c0-.523-.141-1.147-.814-1.147a1,1,0,0,0-.741.427v-2H7.533v6.2h.842V14.99ZM1.471,10.04h.972v5.3h.939v-5.3h.971v-.9H1.471Zm7.1,4.591a.717.717,0,0,1-.2-.16V11.62a.608.608,0,0,1,.172-.139.342.342,0,0,1,.435.075.587.587,0,0,1,.09.351V14.27A.524.524,0,0,1,9,14.585a.266.266,0,0,1-.221.1A.452.452,0,0,1,8.573,14.631Zm2.843-2.18v-.462c0-.315.064-.537.373-.537s.364.226.364.537v.462ZM5.362,5.314V2.96A1.219,1.219,0,0,1,6.645,1.669,1.247,1.247,0,0,1,7.9,2.96V5.314A1.205,1.205,0,0,1,6.645,6.6,1.139,1.139,0,0,1,5.362,5.314Zm.9-2.276V5.273c0,.273.153.455.382.455s.367-.179.367-.455V3.038c0-.3-.136-.458-.383-.458C6.4,2.58,6.263,2.751,6.263,3.038ZM8.647,5.724V1.708h.875V5.39c0,.16.027.324.233.324.169,0,.405-.221.515-.361V1.709h.875v4.8H10.27v-.53c-.375.453-.537.6-1.012.6C8.853,6.582,8.647,6.293,8.647,5.724ZM4.26,6.512H3.275V3.871L2.1,0h.993l.679,2.6L4.407,0h1L4.261,3.871v2.64h0Z" fill="#fff"/></svg>